# xmcd CD database file generated by Grip 3.3.1
# 
# Track frame offsets:
#       150
#       19849
#       48773
#       88647
#       139618
#       159418
#       177465
#       202995
#       246332
#       271927
#       314034
# 
# Disc length: 4635 seconds
# 
# Revision: 1
# Processed by: cddbd v1.5.2PL0 Copyright (c) Steve Scherf et al.
# Submitted via: Grip 3.3.1
# 
DISCID=9312190b
DTITLE=Roy Haynes - Roy Haynes - Roy Haynes - Eight Classic Albums [CD3)
DYEAR=1958
DGENRE=Jazz
TTITLE0=1. Reflection - We three (with Paul Chambers and Phineas Newborn)
TTITLE1=2. Sugar ray - We three (with Paul Chambers and Phineas Newborn)
TTITLE2=3. Solitaire - We three (with Paul Chambers and Phineas Newborn)
TTITLE3=4. After hours - We three (with Paul Chambers and Phineas Newborn)
TTITLE4=5. Speakin' around - We three (with Paul Chambers and Phineas Newbo
TTITLE4=rn)
TTITLE5=6. Our delight - We three (with Paul Chambers and Phineas Newborn)
TTITLE6=1. Blues at the five spot - Soul battle (with Oliver Nelson)
TTITLE7=2. Blues for M.F. (Mort Fega) - Soul battle (with Oliver Nelson)
TTITLE8=3. Anacruses - Soul battle (with Oliver Nelson)
TTITLE9=4. Perdido - Soul battle (with Oliver Nelson)
TTITLE10=5. In Passing - Soul battle (with Oliver Nelson)
EXTD=
EXTT0=
EXTT1=
EXTT2=
EXTT3=
EXTT4=
EXTT5=
EXTT6=
EXTT7=
EXTT8=
EXTT9=
EXTT10=
PLAYORDER=
